<?xml version="1.0" encoding="utf-8"?>
<!-- Generator: Adobe Illustrator 25.4.1, SVG Export Plug-In . SVG Version: 6.00 Build 0)  -->
<svg version="1.1" id="Capa_1" xmlns="http://www.w3.org/2000/svg" xmlns:xlink="http://www.w3.org/1999/xlink" x="0px" y="0px"
	 viewBox="0 0 265 81.73" style="enable-background:new 0 0 265 81.73;" xml:space="preserve">
<style type="text/css">
	.st0{fill:#6EBE93;}
	.st1{fill:#397CC0;}
	.st2{fill:#39393E;}
</style>
<path id="Unión_1" class="st0" d="M201.84,61.36L201.84,61.36c-10.77-0.02-19.48-8.77-19.46-19.54s8.77-19.48,19.54-19.46
	c10.75,0.02,19.46,8.75,19.46,19.5C221.37,52.64,212.62,61.37,201.84,61.36C201.84,61.36,201.84,61.36,201.84,61.36z"/>
<path id="Unión_2" class="st1" d="M17.04,61.36v-39h18.64c4.13,0,7.74,3.19,8.8,7.76s-0.71,9.4-4.3,11.74
	c3.59,2.34,5.36,7.16,4.3,11.73s-4.67,7.77-8.8,7.77H17.04z"/>
<path id="Trazado_5" class="st2" d="M57.34,29.07v9.55h12.82v6.06H57.34v10.09H71.8v6.22H49.71V22.85H71.8v6.22H57.34z M90.31,61.36
	c-2.46,0.04-4.9-0.43-7.17-1.36c-2.01-0.82-3.76-2.18-5.05-3.93c-1.25-1.77-1.92-3.89-1.91-6.05h8.18c0.04,1.41,0.64,2.74,1.66,3.71
	c1.15,0.96,2.62,1.45,4.12,1.36c1.51,0.09,3-0.37,4.2-1.28c1-0.82,1.57-2.06,1.53-3.35c0.04-1.03-0.34-2.03-1.04-2.78
	c-0.73-0.75-1.61-1.34-2.59-1.72c-1.4-0.54-2.83-1-4.28-1.39c-2.06-0.58-4.07-1.3-6.03-2.15c-1.57-0.73-2.94-1.83-3.98-3.22
	c-1.18-1.68-1.77-3.7-1.66-5.76c-0.05-2.09,0.54-4.15,1.69-5.89c1.18-1.71,2.83-3.05,4.74-3.84c2.21-0.92,4.59-1.38,6.98-1.34
	c3.42-0.16,6.8,0.85,9.57,2.86c2.47,1.93,3.96,4.86,4.06,7.99h-8.4c-0.05-1.27-0.66-2.46-1.66-3.25c-1.18-0.9-2.64-1.36-4.12-1.28
	c-1.29-0.07-2.56,0.34-3.57,1.15c-0.93,0.85-1.42,2.07-1.34,3.33c-0.03,0.95,0.34,1.87,1.01,2.54c0.72,0.7,1.57,1.26,2.51,1.64
	c1,0.42,2.41,0.9,4.23,1.44c2.07,0.58,4.09,1.31,6.05,2.18c1.59,0.75,2.97,1.87,4.04,3.27c1.19,1.66,1.79,3.68,1.69,5.73
	c0.01,2-0.54,3.97-1.58,5.67c-1.12,1.8-2.73,3.25-4.64,4.17C95.31,60.9,92.82,61.43,90.31,61.36z M134.74,22.91v6.16h-10.15v31.91
	h-7.63V29.07h-10.15v-6.16L134.74,22.91z M178.6,22.91v26.73c0,3.71-1.07,6.59-3.22,8.65c-2.35,2.13-5.45,3.24-8.62,3.08
	c-3.24,0.15-6.4-0.99-8.81-3.16c-2.24-2.11-3.35-5.05-3.35-8.84h7.64c-0.05,1.37,0.36,2.71,1.17,3.82c0.81,0.94,2.01,1.44,3.25,1.36
	c1.2,0.08,2.37-0.41,3.16-1.31c0.78-1.03,1.17-2.31,1.09-3.6V22.91H178.6z M245.67,41.45c2.1,0.37,3.99,1.52,5.29,3.22
	c1.37,1.7,2.1,3.82,2.07,6c0.04,1.9-0.48,3.77-1.5,5.37c-1.07,1.6-2.57,2.86-4.34,3.63c-2.11,0.92-4.4,1.36-6.71,1.31h-16.42V22.91
	h15.71c2.29-0.06,4.57,0.37,6.68,1.25c1.73,0.72,3.21,1.93,4.26,3.49c0.97,1.51,1.47,3.28,1.45,5.07c0.07,2-0.56,3.97-1.78,5.56
	C249.18,39.8,247.53,40.91,245.67,41.45z M231.71,38.62h6.98c1.5,0.1,2.99-0.34,4.2-1.23c1.01-0.88,1.55-2.18,1.47-3.52
	c0.08-1.34-0.47-2.65-1.47-3.55c-1.2-0.91-2.69-1.35-4.2-1.25h-6.98L231.71,38.62z M239.4,54.76c1.56,0.09,3.09-0.37,4.34-1.31
	c1.06-0.93,1.63-2.3,1.55-3.71c0.07-1.46-0.53-2.88-1.64-3.85c-1.26-0.98-2.83-1.48-4.42-1.39h-7.53v10.26H239.4z"/>
</svg>
